<svg xmlns="http://www.w3.org/2000/svg" viewBox="0 0 159.75 148.8"><defs><style>.cls-1{fill:#2d378c;}.cls-2{fill:#f5921e;}.cls-3{fill:#fff;}</style></defs><title>woap19-logo</title><g id="Layer_2" data-name="Layer 2"><g id="POS"><path class="cls-1" d="M148.8,74.4A74.4,74.4,0,1,1,74.4,0a74.4,74.4,0,0,1,74.4,74.4"/><path class="cls-2" d="M149.33,126.08v1.27h1.4v3.88h1.45v-3.88h1.41v-1.27Zm10.1,0-2.37,2.21-2.36-2.21h-.32v5.15h1.45v-2.29L157,130h.21l1.13-1.09v2.29h1.45v-5.15Z"/><path class="cls-2" d="M143.83,123.65a4.35,4.35,0,0,1,2.49,5.63,4.3,4.3,0,0,1-5.61,2.43,4.24,4.24,0,0,1-2.45-5.55,4.3,4.3,0,0,1,5.57-2.51M155,106.38l-8,15.61-4.48-1.73,4.62-16.91.84-2.14,7.82,3-.83,2.15Z"/></g><g id="REV"><polygon class="cls-2" points="43.23 66.84 41.78 66.84 27.27 33.59 36.08 33.59 42.67 49.66 43.34 49.66 49.99 33.59 51.71 33.59 58.25 49.66 58.91 49.66 65.51 33.59 74.38 33.59 59.85 66.84 58.41 66.84 51.1 50.44 50.54 50.44 43.23 66.84 43.23 66.84"/><path class="cls-2" d="M50.13,84.18h1.33l17.46,33.25H59.83L58,113.5H43.53l-1.77,3.93h-9L50.13,84.18ZM51,98.26h-.44l-4.6,9.59h9.64L51,98.26Z"/><path class="cls-2" d="M117.59,95.76c0,7.82-6,12-14.3,12H96.14v9.7h-8V84.18h15.74c8.43,0,13.75,4.32,13.75,11.58m-14.14-4.65H96.14v10h7.37c3.71,0,5.76-1.66,5.76-5s-2.1-5-5.82-5"/><path class="cls-2" d="M120.94,50.92a19.54,19.54,0,1,1-19.53-19.54,19.53,19.53,0,0,1,19.53,19.54"/></g><g id="POS_VISA"><path class="cls-3" d="M108,55.8c.12-.29.23-.56.35-.83l3.23-7.71.21-.5a1.13,1.13,0,0,1,1.06-.71H115c.68,3.25,1.35,6.5,2,9.75h-2.33l-.15-.69c0-.22-.1-.43-.14-.65s-.05-.11-.13-.11h-3a.14.14,0,0,0-.15.11l-.45,1.26a.12.12,0,0,1-.13.09H108m5.25-7.06h0c-.43,1.21-.87,2.4-1.31,3.62H114c-.25-1.22-.5-2.41-.75-3.61"/><path class="cls-3" d="M92.37,52.64l.3-.75,2.27-5.73c0-.06,0-.11.13-.11h2.54a.29.29,0,0,1,0,.09l-1.78,4.24c-.74,1.76-1.47,3.51-2.2,5.27a.21.21,0,0,1-.22.15H91c-.1,0-.14,0-.16-.12l-1.62-6.3c-.13-.49-.27-1-.38-1.46a1.19,1.19,0,0,0-.68-.83,11.43,11.43,0,0,0-2.25-.75l-.13,0s0,0,0,0c0-.24,0-.24.28-.24h4a1.15,1.15,0,0,1,1.2,1c.24,1.29.48,2.59.73,3.87.1.55.2,1.1.31,1.65a.43.43,0,0,0,0,.11h0"/><path class="cls-3" d="M108.14,48.32c-.4-.11-.77-.24-1.16-.32a3.45,3.45,0,0,0-1.5,0,1.31,1.31,0,0,0-.7.33.61.61,0,0,0,0,.91,3.06,3.06,0,0,0,.88.58,10.84,10.84,0,0,1,1.43.86,2.37,2.37,0,0,1,1,1.65,2.91,2.91,0,0,1-.68,2.3,3.87,3.87,0,0,1-2.1,1.19,6.94,6.94,0,0,1-2.76.09,7.42,7.42,0,0,1-1.48-.35c-.12-.05-.16-.09-.13-.23.14-.62.27-1.23.4-1.85a.84.84,0,0,1,0-.12l.41.18a4.87,4.87,0,0,0,2.22.43,1.85,1.85,0,0,0,1.18-.38.72.72,0,0,0,0-1.12,4.11,4.11,0,0,0-1.09-.69,5.57,5.57,0,0,1-1.5-1,2.33,2.33,0,0,1-.59-2.39,3,3,0,0,1,1.61-1.9,5,5,0,0,1,2.07-.56,6.82,6.82,0,0,1,2.72.37c.09,0,.12.07.1.18-.14.61-.26,1.22-.4,1.83a.35.35,0,0,1,0,.06"/><path class="cls-3" d="M96.64,55.8c.7-3.25,1.39-6.49,2.08-9.74h2.52c-.06.32-.13.62-.19.93-.45,2.08-.89,4.16-1.34,6.24-.18.83-.35,1.65-.53,2.48,0,.07,0,.1-.11.1H96.64"/></g></g></svg>